<?xml version="1.0" standalone="no"?>
<!DOCTYPE svg PUBLIC "-//W3C//DTD SVG 20010904//EN"
 "http://www.w3.org/TR/2001/REC-SVG-20010904/DTD/svg10.dtd">
<svg version="1.0" xmlns="http://www.w3.org/2000/svg"
 width="984.000000pt" height="984.000000pt" viewBox="0 0 984.000000 984.000000"
 preserveAspectRatio="xMidYMid meet">
<metadata>
Created by potrace 1.11, written by Peter Selinger 2001-2013
</metadata>
<g transform="translate(0.000000,984.000000) scale(0.100000,-0.100000)"
fill="#000000" stroke="none">
<path d="M5618 8895 c-2 -2 -41 -6 -88 -9 -47 -3 -98 -7 -115 -10 -49 -6 -148
-19 -170 -22 -19 -2 -48 -7 -105 -19 -14 -3 -41 -8 -60 -11 -19 -3 -66 -12
-104 -21 -37 -8 -73 -16 -80 -17 -6 -1 -15 -4 -21 -7 -5 -4 -44 -14 -85 -24
-41 -10 -81 -22 -87 -28 -7 -5 -13 -7 -13 -4 0 17 -387 -134 -564 -218 l-98
-47 98 -101 c55 -56 106 -108 115 -116 8 -9 42 -50 74 -91 33 -41 62 -77 65
-80 3 -3 30 -42 60 -87 61 -91 55 -89 145 -47 98 46 415 151 480 160 11 1 20
3 20 4 0 1 8 3 19 5 10 2 39 8 65 14 25 6 60 13 76 16 17 3 41 7 55 10 14 3
43 7 65 10 22 2 51 7 65 10 95 20 591 28 735 11 199 -22 240 -28 246 -31 3 -2
28 -7 55 -11 27 -3 52 -8 55 -10 3 -2 19 -6 36 -8 98 -18 397 -108 471 -142
18 -8 40 -17 50 -19 49 -10 318 -144 468 -232 53 -32 275 -182 284 -192 4 -5
65 -54 124 -101 123 -96 324 -302 456 -465 35 -44 67 -82 70 -85 4 -3 10 -12
13 -20 4 -8 23 -35 42 -60 20 -25 41 -57 48 -72 6 -16 15 -28 19 -28 4 0 17
-19 29 -42 12 -24 24 -45 28 -48 3 -3 12 -16 19 -29 8 -13 23 -40 34 -60 55
-96 145 -286 193 -406 51 -126 130 -384 149 -485 2 -14 9 -45 14 -70 6 -25 13
-67 17 -94 3 -27 8 -52 10 -55 3 -6 13 -87 21 -178 2 -24 6 -64 9 -90 5 -57 5
-365 0 -443 -5 -74 -14 -168 -19 -205 -3 -16 -8 -50 -11 -75 -7 -54 -13 -85
-15 -85 -1 0 -4 -13 -6 -29 -5 -44 -57 -270 -63 -276 -4 -3 -7 -14 -9 -25 -5
-30 -80 -255 -98 -294 -9 -18 -17 -39 -18 -45 -7 -36 -177 -376 -188 -376 -4
0 -8 -5 -8 -12 0 -11 -105 -185 -119 -198 -4 -3 -26 -34 -51 -70 -24 -36 -49
-70 -55 -77 -5 -7 -21 -27 -35 -44 -101 -130 -353 -393 -436 -456 -16 -12 -40
-32 -54 -45 -26 -24 -113 -93 -150 -118 -12 -8 -28 -21 -36 -27 -7 -7 -17 -13
-22 -13 -6 0 -12 -3 -14 -8 -4 -10 -181 -124 -238 -153 -25 -13 -47 -26 -50
-29 -8 -10 -229 -116 -320 -153 -88 -36 -306 -114 -344 -122 -11 -2 -55 -14
-96 -25 -41 -11 -84 -22 -95 -24 -43 -8 -92 -18 -135 -27 -25 -6 -58 -12 -75
-14 -27 -2 -96 -11 -165 -21 -14 -1 -79 -6 -145 -10 -105 -6 -156 -7 -300 -5
-16 1 -37 1 -45 0 -39 -1 -292 25 -360 37 -14 3 -43 7 -65 10 -22 2 -47 7 -55
10 -8 3 -28 8 -45 11 -44 7 -210 49 -285 71 -291 88 -596 233 -865 410 -38 26
-72 49 -75 52 -3 3 -21 17 -40 30 -30 21 -69 51 -210 165 -33 27 -310 304
-335 335 -11 14 -38 48 -61 75 -77 94 -144 184 -144 194 0 5 -4 11 -8 13 -9 3
-136 196 -137 208 0 3 -16 32 -35 65 -20 33 -44 78 -55 100 -11 22 -24 43 -30
47 -5 4 -7 8 -2 8 4 0 -4 21 -17 47 -39 77 -53 111 -100 238 -25 66 -49 119
-53 119 -4 -1 -33 -5 -64 -8 -31 -4 -67 -9 -80 -11 -81 -16 -363 -24 -483 -14
-87 7 -97 4 -86 -24 4 -12 22 -69 40 -127 17 -58 35 -114 40 -125 5 -11 25
-61 44 -111 65 -173 198 -442 299 -606 35 -57 70 -114 78 -128 8 -13 20 -30
27 -38 7 -8 19 -27 27 -43 9 -16 20 -29 25 -29 5 0 12 -9 15 -20 3 -11 12 -26
18 -32 7 -7 32 -40 57 -73 24 -33 51 -68 60 -78 109 -132 160 -187 285 -312
136 -136 184 -181 275 -255 30 -25 57 -47 60 -50 3 -3 26 -21 53 -40 26 -19
57 -43 70 -54 36 -30 215 -149 322 -213 323 -194 739 -365 1092 -448 10 -3 35
-9 56 -14 20 -5 37 -7 37 -5 0 3 8 1 18 -5 9 -5 39 -12 66 -15 27 -4 52 -9 56
-11 3 -2 26 -6 50 -9 25 -3 59 -8 75 -11 65 -11 92 -15 155 -21 36 -3 81 -8
100 -11 48 -7 593 -12 604 -5 5 3 33 6 61 8 100 4 269 27 435 59 102 19 328
78 455 118 6 2 37 12 70 22 33 9 65 20 70 24 6 4 28 13 50 20 22 7 58 22 81
32 22 10 65 27 95 39 118 46 513 257 584 313 6 4 60 42 120 83 61 42 113 82
117 88 4 6 8 8 8 4 0 -5 8 0 18 10 23 22 109 93 136 112 12 8 33 27 48 42 15
16 30 28 34 28 7 0 275 268 334 336 25 27 61 69 80 93 19 24 45 55 58 69 12
15 35 45 50 67 15 22 30 42 33 45 16 13 139 196 204 305 80 133 209 375 200
375 -4 0 3 13 14 29 12 16 21 34 21 39 0 6 13 39 29 74 16 35 36 83 44 108 8
25 24 68 36 96 11 29 17 55 14 58 -4 3 -2 6 4 6 6 0 13 12 16 27 2 16 18 72
35 126 16 53 28 97 25 97 -3 0 -1 6 4 13 6 6 11 19 11 27 0 8 10 53 22 100 11
47 23 101 26 120 3 19 7 42 9 50 2 8 6 29 9 45 43 276 50 370 50 675 0 225 -5
340 -19 445 -3 22 -8 60 -11 85 -8 64 -11 87 -23 150 -6 30 -12 66 -15 80 -38
207 -139 549 -211 715 -8 17 -23 55 -35 85 -28 73 -172 364 -182 368 -5 2 -8
8 -8 13 0 5 -18 38 -40 74 -22 36 -40 70 -40 75 0 6 -4 10 -9 10 -5 0 -14 14
-21 30 -7 17 -16 30 -21 30 -5 0 -9 5 -9 11 0 12 -140 212 -152 217 -5 2 -8 7
-8 12 0 5 -9 19 -20 32 -11 12 -43 52 -72 88 -29 36 -69 83 -88 105 -45 51
-312 319 -365 365 -125 111 -431 340 -454 340 -5 0 -11 3 -13 8 -4 10 -65 52
-76 52 -5 0 -15 7 -22 15 -7 9 -15 13 -17 11 -3 -3 -10 0 -17 5 -24 21 -129
79 -142 79 -8 0 -14 4 -14 8 0 9 -252 132 -270 132 -5 0 -10 4 -10 10 0 5 -7
7 -15 4 -8 -4 -15 -1 -15 5 0 6 -6 11 -13 11 -7 0 -32 9 -55 20 -22 11 -47 20
-55 20 -7 0 -17 3 -21 7 -3 4 -12 8 -19 10 -7 1 -57 19 -112 38 -55 20 -125
43 -155 52 -127 35 -237 63 -265 68 -16 3 -64 13 -105 21 -41 9 -88 17 -105
20 -16 2 -61 8 -100 14 -86 12 -142 19 -220 26 -68 7 -572 14 -577 9z"/>
<path d="M2008 8685 c-2 -2 -35 -6 -73 -10 -72 -6 -91 -9 -159 -20 -58 -10
-64 -11 -156 -35 -84 -21 -187 -54 -225 -70 -11 -5 -54 -23 -95 -41 -90 -38
-190 -89 -208 -106 -8 -7 -18 -11 -23 -8 -5 4 -9 1 -9 -4 0 -6 -4 -11 -10 -11
-14 0 -160 -102 -250 -174 -84 -67 -262 -243 -306 -302 -16 -22 -31 -41 -34
-44 -18 -18 -96 -128 -137 -195 -74 -119 -188 -357 -197 -410 -1 -5 -4 -14 -8
-20 -18 -31 -84 -301 -93 -385 -2 -14 -4 -25 -5 -25 -7 0 -14 -147 -14 -295
-1 -160 5 -254 20 -335 3 -16 7 -43 9 -60 2 -16 4 -30 5 -30 1 0 3 -11 6 -25
2 -14 8 -41 14 -60 7 -27 47 -164 55 -190 1 -3 5 -12 8 -20 3 -8 16 -42 28
-75 12 -33 25 -64 30 -69 5 -6 9 -18 9 -28 0 -10 5 -18 10 -18 6 0 10 -5 10
-11 0 -12 40 -99 50 -109 3 -3 16 -25 29 -50 100 -186 331 -458 503 -592 38
-29 68 -56 68 -60 0 -5 6 -8 13 -8 7 0 22 -8 33 -18 26 -24 181 -122 192 -122
5 0 15 -7 22 -15 7 -8 21 -15 31 -15 11 0 19 -4 19 -9 0 -5 10 -13 22 -17 13
-4 56 -23 98 -42 75 -34 312 -116 366 -126 16 -3 56 -11 89 -17 153 -29 212
-34 415 -34 107 0 222 4 255 8 33 5 71 10 85 12 14 1 25 4 25 5 0 1 15 3 33 6
30 4 219 49 250 59 7 2 13 4 15 3 1 -1 12 4 25 11 13 7 31 14 40 16 9 2 31 9
47 16 17 7 33 12 38 11 4 -1 7 2 7 6 0 5 6 9 13 9 17 0 224 104 291 147 31 20
58 36 61 36 3 0 13 7 22 15 10 8 54 41 98 74 155 115 306 266 413 411 23 30
45 60 49 65 23 28 87 131 86 137 -1 3 4 12 12 18 8 7 15 18 15 25 0 8 3 15 8
17 6 2 80 146 87 168 1 3 6 16 12 30 26 59 55 136 58 150 2 8 8 29 15 45 13
35 66 251 75 310 12 81 26 260 26 340 0 87 -15 300 -21 300 -1 0 -3 14 -5 30
-3 32 -13 91 -20 115 -2 8 -7 29 -9 45 -3 17 -17 68 -31 115 -15 47 -28 90
-29 95 -18 66 -114 279 -169 374 -63 109 -114 185 -195 284 -66 82 -264 287
-277 287 -4 0 -15 8 -24 18 -23 25 -92 77 -169 128 -37 24 -74 49 -82 55 -22
14 -49 30 -131 72 -41 22 -80 43 -86 49 -7 6 -13 8 -13 4 0 -3 -22 5 -50 19
-27 14 -50 22 -50 19 0 -4 -6 -2 -12 3 -27 21 -236 85 -358 109 -56 11 -77 15
-119 20 -24 3 -60 8 -80 11 -40 5 -378 13 -383 8z m172 -905 c0 -5 7 -16 16
-25 9 -9 46 -53 83 -99 145 -181 395 -491 400 -496 3 -3 24 -27 46 -55 22 -27
44 -55 50 -61 5 -7 19 -24 30 -40 11 -15 25 -32 30 -38 6 -6 69 -83 140 -171
71 -88 131 -162 134 -165 4 -3 19 -23 36 -45 16 -22 34 -45 40 -51 5 -6 24
-28 40 -49 17 -20 40 -49 53 -63 12 -14 22 -29 22 -33 0 -5 0 -12 0 -15 0 -3
-158 -5 -350 -5 l-350 1 0 -383 0 -382 -437 1 -438 0 -2 315 c-1 173 -2 344
-3 381 l0 66 -317 1 c-407 0 -410 0 -397 9 5 4 40 45 77 92 37 47 76 94 85
105 10 11 34 40 53 65 18 25 36 47 39 50 5 4 191 234 227 280 11 15 118 145
151 185 10 11 33 40 52 65 19 25 39 50 45 56 13 16 18 21 185 229 80 99 149
185 155 191 5 6 26 31 45 56 30 40 60 53 60 28z"/>
<path d="M5678 7154 c-57 -15 -115 -40 -132 -57 -8 -7 -27 -25 -42 -38 -33
-28 -47 -49 -71 -99 -19 -39 -19 -40 -28 -95 -12 -68 -13 -85 -3 -85 5 0 6 -5
2 -12 -10 -15 -12 -287 -2 -314 4 -12 4 -25 0 -28 -10 -11 -8 -96 3 -96 7 0 7
-3 0 -8 -12 -8 -14 -182 -2 -182 5 0 5 -5 1 -12 -10 -15 -12 -287 -2 -314 4
-12 4 -25 0 -28 -10 -11 -8 -96 3 -96 7 0 7 -3 0 -8 -12 -8 -14 -182 -2 -182
5 0 5 -5 1 -12 -10 -15 -12 -287 -2 -314 4 -12 4 -25 0 -29 -11 -10 -8 -89 3
-97 7 -5 7 -8 0 -8 -11 0 -12 -140 -1 -159 4 -6 3 -11 -1 -11 -9 0 -8 -113 1
-181 8 -61 52 -143 100 -189 33 -32 127 -96 163 -112 16 -6 359 -211 385 -229
15 -10 32 -19 37 -19 5 0 24 -12 42 -27 18 -16 33 -26 33 -23 1 3 26 -11 56
-29 83 -52 133 -81 153 -87 9 -4 17 -10 17 -15 0 -5 4 -9 10 -9 5 0 38 -18 72
-40 35 -22 69 -40 76 -40 6 0 12 -4 12 -9 0 -5 8 -11 18 -14 16 -6 65 -33 87
-50 5 -4 114 -69 240 -144 214 -126 277 -160 315 -171 28 -7 164 -11 174 -4 6
3 17 7 25 9 74 11 206 135 221 208 1 6 6 18 11 28 27 49 16 174 -21 255 -24
50 -132 162 -157 162 -5 0 -31 15 -59 33 -28 19 -57 36 -65 40 -8 4 -54 32
-104 62 -49 30 -102 61 -117 67 -16 7 -28 16 -28 20 0 4 -5 8 -10 8 -6 0 -47
23 -91 50 -44 27 -82 50 -84 50 -2 0 -55 31 -119 70 -63 39 -120 70 -125 70
-6 0 -11 3 -11 8 0 4 -17 16 -37 27 -21 10 -49 27 -63 36 -14 9 -41 25 -60 36
-19 10 -72 41 -118 68 -45 28 -90 55 -100 60 -9 6 -53 32 -97 58 l-80 48 -1
937 c0 515 -3 958 -6 984 -25 185 -239 329 -420 282z"/>
</g>
</svg>
